<?xml version="1.0" encoding="UTF-8" standalone="no"?>
<svg
   xmlns:dc="http://purl.org/dc/elements/1.1/"
   xmlns:cc="http://creativecommons.org/ns#"
   xmlns:rdf="http://www.w3.org/1999/02/22-rdf-syntax-ns#"
   xmlns:svg="http://www.w3.org/2000/svg"
   xmlns="http://www.w3.org/2000/svg"
   xmlns:sodipodi="http://sodipodi.sourceforge.net/DTD/sodipodi-0.dtd"
   xmlns:inkscape="http://www.inkscape.org/namespaces/inkscape"
   inkscape:export-ydpi="260.005"
   inkscape:export-xdpi="260.005"
   inkscape:export-filename="/Users/benjamin/Documents/Lab/nuptialtrack-app/Assets/FullAnt-shortFourWings.png"
   width="225.16216mm"
   height="122.44394mm"
   viewBox="0 0 225.16215 122.44394"
   version="1.1"
   id="svg2723"
   inkscape:version="1.0 (4035a4f, 2020-05-01)"
   sodipodi:docname="FullAnt-shortFourWings.svg">
  <defs
     id="defs2717" />
  <sodipodi:namedview
     id="base"
     pagecolor="#ffffff"
     bordercolor="#666666"
     borderopacity="1.0"
     inkscape:pageopacity="0.0"
     inkscape:pageshadow="2"
     inkscape:zoom="0.72345476"
     inkscape:cx="446.09832"
     inkscape:cy="337.0562"
     inkscape:document-units="mm"
     inkscape:current-layer="g2692"
     inkscape:document-rotation="0"
     showgrid="false"
     inkscape:window-width="1252"
     inkscape:window-height="810"
     inkscape:window-x="0"
     inkscape:window-y="23"
     inkscape:window-maximized="0"
     fit-margin-top="1.3"
     fit-margin-left="1.3"
     fit-margin-right="1.3"
     fit-margin-bottom="1.3"
     lock-margins="true" />
  <metadata
     id="metadata2720">
    <rdf:RDF>
      <cc:Work
         rdf:about="">
        <dc:format>image/svg+xml</dc:format>
        <dc:type
           rdf:resource="http://purl.org/dc/dcmitype/StillImage" />
        <dc:title></dc:title>
      </cc:Work>
    </rdf:RDF>
  </metadata>
  <g
     inkscape:label="Layer 1"
     inkscape:groupmode="layer"
     id="layer1"
     transform="translate(-100.85252,-51.563186)">
    <g
       id="g2692"
       transform="matrix(1.0635639,0,0,1.0635639,175.79992,19.489255)">
      <g
         id="g1610">
        <g
           style="stroke:#000000;stroke-width:1.05061"
           id="g389"
           transform="matrix(1.8519072,0,0,1.9568539,-214.15331,-123.40038)">
          <path
             style="fill:#d0d0a7;fill-opacity:0.591093;stroke:#000000;stroke-width:0.685907;stroke-linecap:butt;stroke-linejoin:miter;stroke-opacity:1"
             d="m 158.71389,112.74654 c 0,0 -77.684826,-9.38796 -79.211119,-19.273806 -1.526304,-9.885816 3.926029,-9.9529 14.205004,-9.312911 10.279035,0.639999 65.006115,28.586717 65.006115,28.586717 z"
             id="path67-7-6"
             sodipodi:nodetypes="czzc" />
          <path
             style="fill:none;stroke:#000000;stroke-width:1.05061;stroke-linecap:butt;stroke-linejoin:miter;stroke-opacity:1"
             d="m 168.7594,101.20207 2.70597,-20.849265 8.56896,6.382427"
             id="path37" />
          <path
             style="fill:none;stroke:#000000;stroke-width:1.05061;stroke-linecap:butt;stroke-linejoin:miter;stroke-opacity:1"
             d="m 177.77934,100.5188 7.21594,-20.423767 5.86296,6.382427"
             id="path41" />
          <path
             style="fill:none;stroke:#000000;stroke-width:1.05061;stroke-linecap:butt;stroke-linejoin:miter;stroke-opacity:1"
             d="m 167.83926,135.77039 -0.24684,-9.76109 -8.38236,-9.27415 12.89136,6.42805 1.63875,12.43871"
             id="path43"
             sodipodi:nodetypes="ccccc" />
          <path
             style="fill:none;stroke:#000000;stroke-width:1.05061;stroke-linecap:butt;stroke-linejoin:miter;stroke-opacity:1"
             d="m 145.80443,136.07558 0.0183,-6.59308 7.54008,-13.52604 2.65024,13.01468 0.79228,6.83504"
             id="path45"
             sodipodi:nodetypes="ccccc" />
          <path
             style="fill:none;stroke:#000000;stroke-width:1.05061;stroke-linecap:butt;stroke-linejoin:miter;stroke-opacity:1"
             d="m 121.05635,136.65385 -0.0183,-6.5165 29.10772,-12.66962 -17.50319,11.99925 v 7.2122"
             id="path47"
             sodipodi:nodetypes="ccccc" />
          <path
             id="path373"
             style="fill:#000000;stroke:#000000;stroke-width:1.05061;stroke-linecap:round"
             d="m 183.41041,102.38841 c 1.5605,4.73658 -2.90503,13.96436 -5.42385,14.59884 -1.67193,0.42115 -11.87879,-4.2964 -13.43929,-9.03299 -1.56049,-4.73659 1.39715,-9.822316 6.60606,-11.359281 5.20891,-1.536964 10.69659,1.056842 12.25708,5.793431"
             sodipodi:nodetypes="csssc" />
          <path
             sodipodi:nodetypes="czzc"
             id="path67-3"
             d="m 162.85655,114.34021 c 0,0 -75.796142,-13.14764 -77.322435,-23.033491 -1.526294,-9.885866 3.926037,-9.95295 14.205011,-9.312961 10.278964,0.639989 63.117424,32.346452 63.117424,32.346452 z"
             style="fill:#d0d0a7;fill-opacity:0.591093;stroke:#000000;stroke-width:0.685907;stroke-linecap:butt;stroke-linejoin:miter;stroke-opacity:1" />
          <rect
             style="fill:#000000;stroke:#000000;stroke-width:1.05061;stroke-linecap:round"
             id="rect409"
             width="19.086569"
             height="14.118169"
             x="145.77652"
             y="104.91072"
             ry="6.5941148" />
          <path
             id="rect411"
             style="fill:#000000;stroke:#000000;stroke-width:1.05061;stroke-linecap:round"
             d="m 105.22215,100.60387 h 33.09535 c 5.1209,0 9.24351,4.53075 9.24351,10.15862 v 0 c 0,5.62788 -4.12261,10.15863 -9.24351,10.15863 h -33.09535 c -5.1209,0 -12.968845,-8.02889 -12.968845,-10.15863 0,-2.12973 8.933365,-10.01063 12.968845,-10.15862 z"
             sodipodi:nodetypes="cssssszc" />
          <path
             style="fill:#d0d0a7;fill-opacity:0.591093;stroke:#000000;stroke-width:0.685907;stroke-linecap:butt;stroke-linejoin:miter;stroke-opacity:1"
             d="m 160.97733,111.20333 c 0,0 -77.045671,-1.34788 -80.244848,-10.86893 -3.199179,-9.521051 2.169576,-10.423549 12.422247,-11.368653 10.252671,-0.945104 67.822601,22.237583 67.822601,22.237583 z"
             id="path67"
             sodipodi:nodetypes="czzc" />
          <rect
             style="fill:#000000;stroke:#000000;stroke-width:1.05086;stroke-linecap:round"
             id="rect413"
             width="5.3504386"
             height="4.2777843"
             x="120.18359"
             y="149.25716"
             ry="2.1388922"
             transform="matrix(0.95978824,-0.28072501,0.31044064,0.95059277,0,0)" />
          <path
             sodipodi:nodetypes="czzc"
             id="path67-7"
             d="m 160.97733,111.20333 c 0,0 -78.265496,2.65178 -81.464673,-6.86927 -3.199179,-9.521042 2.169576,-10.42354 12.422248,-11.368644 10.252745,-0.945104 69.042425,18.237914 69.042425,18.237914 z"
             style="fill:#d0d0a7;fill-opacity:0.591093;stroke:#000000;stroke-width:0.685907;stroke-linecap:butt;stroke-linejoin:miter;stroke-opacity:1" />
        </g>
        <ellipse
           ry="5.5887132"
           rx="4.8216348"
           cy="81.357681"
           cx="102.01263"
           id="path42"
           style="opacity:1;fill:#424242;fill-opacity:1;stroke:none;stroke-width:2.74643;stroke-linecap:round" />
        <ellipse
           style="opacity:1;fill:#424242;fill-opacity:1;stroke:none;stroke-width:2.74643;stroke-linecap:round"
           id="path42-8"
           cx="116.25837"
           cy="79.05645"
           rx="4.8216348"
           ry="5.5887132" />
      </g>
    </g>
  </g>
</svg>
